<svg width="154" height="154" viewBox="0 0 154 154" fill="none" xmlns="http://www.w3.org/2000/svg">
<path fill-rule="evenodd" clip-rule="evenodd" d="M32.6028 88.3802C36.7267 89.1467 39.6395 87.7056 41.1419 87.376C41.5789 87.284 43.5105 88.1426 46.5613 88.1426C47.4368 88.0981 48.2946 87.8792 49.0843 87.4988C49.8741 87.1184 50.5799 86.5841 51.1605 85.9273C51.2601 85.8123 51.0762 85.6667 50.9765 85.7816C49.794 86.9461 48.2055 87.6057 46.546 87.6213C44.9324 87.5513 43.3324 87.294 41.7782 86.8548C40.728 86.6172 40.889 86.9084 38.2291 87.6213C36.4123 88.1162 34.5142 88.2387 32.6488 87.9816C30.2879 87.6443 29.8433 87.1154 29.7436 87.3837C29.7334 87.4132 29.7349 87.4455 29.7477 87.474C29.7606 87.5025 29.7838 87.525 29.8126 87.537C30.714 87.9054 31.6482 88.1877 32.6028 88.3802ZM86.4976 78.032C89.878 77.7637 92.6298 74.7819 92.3769 72.9806C92.3815 72.9625 92.3819 72.9435 92.3781 72.9252C92.3743 72.9069 92.3664 72.8897 92.3549 72.875C92.3435 72.8602 92.3288 72.8482 92.312 72.84C92.2952 72.8318 92.2767 72.8275 92.258 72.8275C92.2393 72.8275 92.2209 72.8318 92.2041 72.84C92.1873 72.8482 92.1726 72.8602 92.1612 72.875C92.1497 72.8897 92.1418 72.9069 92.138 72.9252C92.1342 72.9435 92.1346 72.9625 92.1392 72.9806C92.0166 73.6861 91.6793 74.3365 91.1734 74.8433C90.1182 76.0118 88.8062 76.9197 87.3407 77.4955C86.4439 77.8557 86.3136 77.7561 86.3443 77.9324C86.3456 77.95 86.351 77.9671 86.36 77.9823C86.369 77.9976 86.3814 78.0105 86.3963 78.0201C86.4111 78.0298 86.4279 78.0359 86.4455 78.0379C86.4631 78.04 86.4809 78.038 86.4976 78.032ZM21.2505 90.8254C21.28 90.8153 21.3042 90.7938 21.3178 90.7658C21.3315 90.7377 21.3335 90.7054 21.3233 90.6759C21.3131 90.6465 21.2917 90.6222 21.2636 90.6086C21.2356 90.5949 21.2033 90.593 21.1738 90.6031C19.2845 91.0123 17.3295 91.0123 15.4402 90.6031C14.6277 90.3962 14.5817 90.2275 14.4973 90.3808C14.4825 90.4076 14.4782 90.439 14.4853 90.4688C14.4924 90.4985 14.5103 90.5246 14.5357 90.5418C16.3217 91.8296 19.3035 91.7759 21.2505 90.8254ZM115.005 34.792C115.258 34.8763 115.005 34.5314 116.27 32.2778C118.837 27.625 123.452 23.547 128.136 20.9332C130.029 19.8753 130.19 19.9827 130.113 19.791C130.098 19.763 130.074 19.7413 130.044 19.73C130.015 19.7187 129.982 19.7186 129.952 19.7297C122.141 22.7958 116.5 29.158 114.928 34.6387C114.922 34.6538 114.919 34.6699 114.92 34.6861C114.921 34.7022 114.925 34.718 114.932 34.7325C114.939 34.747 114.95 34.7598 114.962 34.77C114.975 34.7803 114.989 34.7878 115.005 34.792ZM137.863 40.9013C134.467 38.3564 129.086 37.1376 124.832 36.6164C121.991 36.2379 119.116 36.1813 116.262 36.4477C116.246 36.4487 116.23 36.4529 116.216 36.4599C116.201 36.467 116.188 36.4769 116.177 36.489C116.167 36.5011 116.159 36.5152 116.153 36.5305C116.148 36.5458 116.146 36.5619 116.147 36.578C116.147 36.785 116.193 36.578 118.937 36.6854C124.563 36.8847 133.379 38.2184 137.694 41.0929C137.855 41.1772 137.993 40.9856 137.863 40.9013ZM111.371 81.0062C110.874 81.2561 110.342 81.4293 109.792 81.5197C109.778 81.5132 109.763 81.5095 109.748 81.5088C109.732 81.5082 109.717 81.5106 109.702 81.5159C109.687 81.5213 109.674 81.5294 109.663 81.54C109.651 81.5505 109.642 81.5631 109.635 81.5772C109.629 81.5913 109.625 81.6066 109.624 81.6221C109.624 81.6376 109.626 81.6531 109.631 81.6677C109.637 81.6823 109.645 81.6957 109.656 81.7071C109.666 81.7186 109.679 81.7278 109.693 81.7344C109.845 81.8454 110.022 81.9194 110.208 81.9503C110.394 81.9812 110.584 81.9682 110.765 81.9124C110.945 81.8565 111.109 81.7594 111.245 81.6287C111.381 81.498 111.485 81.3373 111.548 81.1595C111.568 81.1361 111.578 81.1056 111.576 81.0747C111.574 81.0438 111.56 81.015 111.536 80.9947C111.513 80.9743 111.482 80.9641 111.452 80.9663C111.421 80.9684 111.392 80.9828 111.371 81.0062ZM17.1725 114.772C15.7238 114.902 15.9767 115.538 17.4255 115.339C18.8742 115.14 18.1 114.688 17.1725 114.772ZM39.8772 111.92C39.7249 111.932 39.5737 111.955 39.4249 111.989C38.5971 112.219 38.781 112.503 39.6012 112.518C41.1956 112.526 41.2876 111.813 39.8772 111.92ZM16.3907 131.39C15.7621 131.39 14.9649 131.735 16.0074 131.95C16.2615 131.987 16.5198 131.987 16.7739 131.95C17.8547 131.689 16.9579 131.375 16.3907 131.39ZM38.7044 127.274C37.5163 127.328 37.9915 127.78 38.7044 127.849C39.9462 127.979 40.2528 127.213 38.7044 127.274ZM61.0564 138.519C59.5234 138.596 60.8265 139.209 61.8229 139.094C62.8194 138.979 62.5205 138.442 61.0564 138.519ZM84.4356 132.586C82.9025 132.525 83.4468 133.192 84.5736 133.184C85.4551 133.176 85.754 132.655 84.4356 132.586ZM109.938 141.516C108.934 141.516 108.336 141.938 109.463 142.091C109.784 142.125 110.108 142.125 110.429 142.091C111.594 141.861 110.835 141.501 109.938 141.516ZM128.419 122.292C130.09 122.429 130.128 121.801 128.419 121.701C126.572 121.586 127.185 122.192 128.419 122.292ZM139.963 118.704C139.488 118.781 139.197 119.049 139.817 119.225C140.122 119.302 140.441 119.302 140.745 119.225C141.665 118.857 140.676 118.589 139.963 118.704ZM33.5456 40.1424C34.6004 40.1404 35.6444 39.9299 36.6176 39.523C37.5908 39.1161 38.4739 38.5209 39.2162 37.7714C39.9585 37.022 40.5453 36.1333 40.9429 35.1563C41.3404 34.1793 41.541 33.1333 41.5329 32.0785C41.4686 30.002 40.5985 28.032 39.1069 26.5859C37.6153 25.1398 35.6193 24.3311 33.5418 24.3311C31.4643 24.3311 29.4683 25.1398 27.9767 26.5859C26.4851 28.032 25.615 30.002 25.5507 32.0785C25.5426 33.1339 25.7434 34.1805 26.1415 35.158C26.5395 36.1355 27.127 37.0246 27.8701 37.7742C28.6132 38.5237 29.4973 39.1188 30.4713 39.5252C31.4454 39.9317 32.4902 40.1414 33.5456 40.1424ZM28.2182 26.7358C28.9002 26.0056 29.7251 25.4234 30.6415 25.0254C31.558 24.6273 32.5465 24.4219 33.5456 24.4219C34.5448 24.4219 35.5333 24.6273 36.4497 25.0254C37.3662 25.4234 38.191 26.0056 38.873 26.7358C40.2535 28.1633 41.0201 30.0746 41.0086 32.0604C40.9971 34.0461 40.2085 35.9484 38.8117 37.3599C38.122 38.0547 37.3016 38.6062 36.3978 38.9825C35.494 39.3588 34.5246 39.5526 33.5456 39.5526C32.5666 39.5526 31.5973 39.3588 30.6935 38.9825C29.7897 38.6062 28.9693 38.0547 28.2796 37.3599C26.8827 35.9484 26.0941 34.0461 26.0826 32.0604C26.0712 30.0746 26.8378 28.1633 28.2182 26.7358ZM115.12 35.3209L115.112 35.3056V35.3133L115.12 35.3209ZM95.4353 47.9074C95.4353 47.9074 97.4053 46.5353 97.5663 46.4126C98.4018 45.7687 99.4289 45.1249 100.249 44.596C102.434 43.1932 102.349 43.0629 105.27 41.4455C106.113 40.9703 113.234 37.1146 113.855 36.7467C113.88 36.7294 113.897 36.7038 113.904 36.6747C113.911 36.6455 113.907 36.6149 113.893 36.5885C113.878 36.5621 113.855 36.5417 113.827 36.5313C113.799 36.521 113.768 36.5212 113.74 36.5321C110.927 37.9808 105.454 40.3034 101.384 43.1549C99.9785 44.0675 98.6201 45.0499 97.3133 46.0984C96.5812 46.6445 95.8777 47.2278 95.2054 47.846C95.2049 47.8734 95.2136 47.9001 95.2301 47.922C95.2466 47.9438 95.2699 47.9595 95.2964 47.9665C95.3228 47.9736 95.3509 47.9716 95.376 47.9609C95.4012 47.9501 95.4221 47.9313 95.4353 47.9074ZM84.9722 92.0059C85.4659 92.2687 86.015 92.4106 86.5742 92.4198C86.8195 92.4198 86.9805 92.2435 87.0341 91.8832C87.0878 91.5198 87.0878 91.1505 87.0341 90.7871C86.7735 89.0547 86.2676 89.4763 86.3826 89.6603C85.892 89.7906 84.2516 91.6303 84.9722 92.0059ZM86.4286 89.9286C86.4371 89.9322 86.4462 89.934 86.4554 89.934C86.4646 89.934 86.4737 89.9322 86.4822 89.9286C86.5449 90.5633 86.5449 91.2026 86.4822 91.8372C86.1142 91.7791 85.7542 91.6787 85.4091 91.5383C85.6709 90.9561 86.0142 90.4141 86.4286 89.9286Z" fill="white"/>
<path fill-rule="evenodd" clip-rule="evenodd" d="M126.993 44.3046L128.779 42.5185L129.661 44.9484C129.722 45.1171 129.094 44.8258 138.33 48.6508C138.476 48.7121 138.384 48.7121 140.63 47.8843C140.937 50.4981 140.906 50.4521 141.006 50.5595C141.619 51.211 146.448 56.3391 147.138 56.9293C148.449 58.0868 151.315 49.9156 148.564 45.5693C142.983 36.7926 135.901 34.1634 125.644 33.4198C123.621 33.2819 119.113 34.0867 117.113 34.47C121.605 31.9174 121.405 32.1321 121.39 31.9404L121.244 29.9091L123.145 30.1544C123.268 30.1544 122.479 30.691 135.326 22.1135C135.51 21.9909 135.464 22.1135 135.464 19.6989C137.257 19.3617 137.48 19.331 137.556 19.3003C138.231 19.0167 143.527 16.8398 144.118 16.4105C144.19 16.3673 144.243 16.2978 144.266 16.2165C144.289 16.1352 144.28 16.0483 144.24 15.9736C142.132 12.2636 138.982 12.0336 134.843 12.7695C127.055 14.1416 121.98 19.1547 117.036 25.2639C115.53 27.2776 114.598 29.6616 114.338 32.1627C111.341 27.1189 106.205 25.3176 100.908 23.1713C93.1128 20.0209 75.7432 19.8292 68.5685 24.8577C65.201 27.145 62.4941 30.2775 60.7192 33.9411C60.6579 34.0637 60.6425 34.332 61.0028 34.4316C62.2829 34.7843 73.7579 34.4316 75.0916 34.4316C75.2756 34.4316 75.2833 34.3013 76.847 33.1285C76.9543 33.5348 77.0846 34.1404 77.1536 34.5083C77.1681 34.5759 77.2061 34.6361 77.2608 34.6782C77.3156 34.7203 77.3835 34.7416 77.4526 34.7383C89.4104 34.2553 88.6822 34.3243 88.7972 34.2017C88.7972 34.2017 90.062 32.7683 90.6369 32.201C90.7103 32.4146 90.7717 32.6322 90.8208 32.8526C91.1505 34.3013 90.9818 34.5083 91.2501 34.5926C93.657 35.3592 98.7774 36.8922 101.322 37.4901C93.7643 39.897 89.2571 42.5415 84.6196 49.1184C82.9328 51.6881 81.6168 54.4827 80.7103 57.4199C80.148 57.3643 79.5829 57.4934 79.1006 57.7878C78.771 58.0101 78.886 58.5544 79.0086 58.93C78.0658 58.746 77.5522 59.1829 77.8665 60.1411C78.1194 60.9076 78.9243 61.9731 78.9243 62.5173C78.8706 62.4407 78.7403 62.226 78.7097 62.1877C77.9348 61.5944 76.9695 61.3054 75.9961 61.3752C75.0456 61.3752 74.2714 62.341 73.6429 62.7933C74.2485 60.8923 73.1523 59.7885 70.4235 62.3564C70.4839 62.1835 70.5023 61.9988 70.4769 61.8175C70.4516 61.6361 70.3833 61.4635 70.2778 61.3139C69.5113 60.5473 67.6716 62.249 66.9281 62.6936C66.9281 62.3794 67.1657 61.7201 66.4758 61.3752C65.3644 60.8156 64.5748 61.9501 63.8926 62.9083C63.632 61.8428 62.2829 61.6052 61.2634 62.0114C60.6656 62.3113 60.1995 62.8215 59.9548 63.444C59.71 64.0664 59.7038 64.7574 59.9373 65.3842C58.7952 64.7863 57.4384 64.3953 57.3848 65.6831C57.3823 66.0111 57.4209 66.3382 57.4998 66.6566C56.9632 66.3193 56.1353 65.8901 55.5681 66.1737C54.495 66.7179 54.8016 67.8141 55.4148 68.8412C48.7077 68.8412 8.29616 69.6077 4.82377 69.7994C4.75979 69.8143 4.70275 69.8505 4.66192 69.902C4.62109 69.9535 4.59887 70.0173 4.59887 70.083C4.59887 70.1487 4.62109 70.2125 4.66192 70.264C4.70275 70.3155 4.75979 70.3516 4.82377 70.3666C38.3672 69.9527 98.8464 69.6001 99.1607 69.7764C104.526 73.5017 94.6382 83.3823 87.7854 84.9C85.6351 83.3703 83.4038 81.9579 81.1012 80.6688C80.9096 80.5691 80.8713 80.8911 80.8406 81.1057C80.81 81.3203 80.7793 81.5503 80.7486 81.8722C78.7751 79.8132 76.4357 78.1392 73.8499 76.9358C68.7448 74.7742 65.418 76.5142 62.5435 81.144C61.3092 83.2631 60.2824 85.4964 59.4774 87.8128C58.7831 89.8559 58.1947 91.9334 57.7144 94.0371C56.4805 94.2866 55.2136 94.3281 53.9661 94.1597C51.0992 93.7994 46.9446 92.711 46.0938 92.9946C44.4534 93.5465 43.0966 94.8956 41.3949 95.4628C38.6723 96.4039 35.7865 96.7805 32.9135 96.5696C30.0406 96.3588 27.2407 95.5649 24.6846 94.2364C23.918 93.8684 19.0429 95.4015 17.9391 95.6314C15.2103 96.1833 8.25783 94.4663 4.27187 91.4922C4.24635 91.4797 4.21727 91.4764 4.18961 91.4829C4.16194 91.4895 4.13742 91.5055 4.12021 91.5281C4.10301 91.5507 4.09421 91.5786 4.09531 91.607C4.0964 91.6354 4.10733 91.6626 4.12623 91.6838C8.17351 94.7499 15.1796 96.513 18.0081 95.9611C18.698 95.8231 23.987 94.313 24.5083 94.5736C27.1085 95.943 29.9605 96.7682 32.8902 96.9988C35.8198 97.2294 38.7658 96.8607 41.5483 95.9151C43.3266 95.3248 44.6144 94.0064 46.2548 93.4698C46.9063 93.2552 51.2065 94.336 53.9201 94.681C55.1452 94.8585 56.3914 94.83 57.6071 94.5966C57.2698 96.0607 56.1507 101.173 56.074 102.178C56.0649 102.23 56.067 102.284 56.0802 102.335C56.0934 102.387 56.1174 102.435 56.1507 102.477C56.281 102.599 56.5263 102.607 58.1513 102.638C57.7374 105.167 57.7757 104.975 57.5917 105.205C56.7765 106.045 55.903 106.826 54.9779 107.543C54.403 108.019 53.6671 108.839 53.9967 109.513C54.196 109.904 54.6943 109.927 55.1312 109.889C55.1312 110.096 55.1312 110.494 55.3305 110.548C55.6677 110.625 58.9792 110.594 59.5464 110.586L60.1366 111.353C59.2858 112.733 53.5981 122.153 53.7361 123.755C53.7821 124.231 54.7096 124.484 55.2155 124.622C55.1158 124.882 55.0162 125.143 54.9242 125.342C54.8322 125.541 54.8476 125.549 54.8092 125.61C54.7709 125.672 51.8811 126.377 50.5703 127.327C49.7118 127.941 49.8038 128.6 50.2637 128.861C51.5208 129.589 58.4349 129.435 58.8182 129.029C59.3241 128.493 59.715 126.216 59.8453 125.48C60.3843 125.583 60.9393 125.564 61.4704 125.426C63.9987 123.374 66.3476 121.109 68.4918 118.658C69.381 119.202 70.3238 119.724 71.3203 120.191C70.5538 121.057 62.3442 130.21 62.2599 130.877C62.1449 131.712 64.5595 132.64 65.2724 132.203C65.487 132.065 66.0389 131.436 74.647 121.556C76.2481 122.098 77.8953 122.493 79.5682 122.736C82.2165 123.117 84.8876 123.317 87.5631 123.334C90.5832 124.99 94.2319 126.975 96.5622 128.232C87.4404 139.515 87.8774 138.925 87.8774 139.14C87.8774 139.546 88.4829 139.96 88.8279 140.175C89.1728 140.389 89.832 140.711 90.1923 140.519C90.7212 140.228 98.8924 130.194 99.2987 129.696C103.668 131.996 107.378 133.943 108.359 134.426C108.673 134.587 108.934 134.272 109.126 133.973C109.36 133.588 109.56 133.183 109.723 132.762C109.745 132.697 109.744 132.627 109.721 132.563C109.697 132.499 109.652 132.445 109.593 132.41L101 127.619L106.266 121.195L132.068 135.522C132.131 135.549 132.202 135.557 132.27 135.545C132.338 135.533 132.401 135.501 132.451 135.453C132.927 134.824 133.318 134.136 133.616 133.406C133.708 133.122 133.555 133.023 133.363 132.9C133.325 132.9 118.079 124.3 108.244 118.781L113.694 112.112C115.012 112.167 116.325 111.935 117.544 111.432C118.763 110.929 119.858 110.167 120.754 109.199C120.831 110.088 120.884 110.793 120.923 111.284C120.929 111.31 120.945 111.334 120.966 111.35C120.988 111.367 121.014 111.376 121.041 111.376C121.069 111.376 121.095 111.367 121.117 111.35C121.138 111.334 121.153 111.31 121.16 111.284C121.114 110.517 121.06 109.751 121.007 108.938C123.007 106.639 123.812 103.228 123.843 100.169C124.647 100.019 125.441 99.8168 126.219 99.5637C126.25 99.5637 126.279 99.5516 126.301 99.5301C126.322 99.5085 126.334 99.4793 126.334 99.4488C126.334 99.4183 126.322 99.389 126.301 99.3675C126.279 99.3459 126.25 99.3338 126.219 99.3338C125.474 99.3434 124.73 99.4152 123.996 99.5484C127.17 95.6621 132.689 88.817 133.624 87.6212C135.924 101.051 136.077 111.238 136.368 112.15C136.368 112.311 136.598 112.434 136.598 112.051C136.601 112.03 136.601 112.01 136.598 111.989C136.222 108.065 135.962 99.0732 134.015 87.1306C140.814 78.5685 140.515 78.8061 140.362 78.5608C140.055 78.0932 138.829 77.687 137.97 77.6563C137.886 77.6563 138.039 77.4953 136.038 79.9559C135.218 79.7413 134.007 79.496 132.558 79.2354C131.93 76.1692 131.225 73.1568 130.412 70.037C147.345 70.4356 146.433 70.5046 146.563 70.2899L147.398 70.3666C147.417 70.3712 147.436 70.3717 147.454 70.3679C147.472 70.3641 147.489 70.3561 147.504 70.3447C147.519 70.3332 147.531 70.3185 147.539 70.3017C147.547 70.2849 147.552 70.2665 147.552 70.2478C147.552 70.2291 147.547 70.2106 147.539 70.1939C147.531 70.1771 147.519 70.1624 147.504 70.1509C147.489 70.1394 147.472 70.1315 147.454 70.1277C147.436 70.1239 147.417 70.1243 147.398 70.129L146.555 70.0523C146.594 68.9409 146.433 67.8217 145.382 67.4385C146.034 67.1165 147.1 66.6719 146.663 65.8517C146.226 65.0315 145.13 65.9054 144.693 65.8517C144.616 65.3458 145.459 63.7131 143.926 63.3298C143.366 63.326 142.805 63.3515 142.247 63.4065C142.531 62.8929 143.091 61.9808 143.014 61.4212C142.945 61.0609 142.638 60.7773 141.803 60.9843C141.634 61.0303 141.036 61.2679 140.615 61.3752C140.7 61.2503 140.772 61.1167 140.829 60.9766C140.975 60.2818 140.849 59.5576 140.477 58.953C139.588 57.6269 138.292 58.6463 137.211 59.1446C137.413 58.7942 137.524 58.3989 137.533 57.9948C137.495 57.2743 136.682 57.1056 136 57.3049C135.437 57.5173 134.891 57.7736 134.367 58.0714C134.591 57.7578 134.688 57.3716 134.64 56.9896C134.592 56.6075 134.401 56.2576 134.107 56.0095C133.639 55.7029 132.459 56.0095 131.922 56.2164C132.689 54.852 132.413 53.6792 131.784 53.0507C131.156 52.4221 129.707 52.974 129.063 52.9127C129.225 52.6885 129.366 52.4499 129.485 52.1998C129.63 51.5149 129.504 50.8003 129.132 50.2068C129.051 50.0786 128.937 49.9741 128.803 49.9041C128.668 49.8341 128.517 49.801 128.366 49.8083C127.599 49.8083 126.288 50.8201 126.066 50.5748C125.844 50.3295 126.066 49.4556 125.299 49.0417C124.533 48.6278 123.636 48.9037 123.636 50.2298C122.325 47.1637 121.053 44.6035 119.911 42.4879C127.392 44.5575 126.855 44.4579 126.993 44.3046ZM58.4809 128.623C57.6224 128.822 51.3215 128.861 50.486 128.301C50.1947 127.596 54.4106 126.231 54.9472 125.948C55.1695 125.825 55.3841 125.066 55.4991 124.675C56.8323 125.02 58.1869 125.276 59.5541 125.442C59.3778 125.994 58.8335 128.178 58.4809 128.623ZM117.366 25.5246C122.31 19.5763 127.392 14.6475 134.942 13.3367C138.698 12.6852 141.603 12.7695 143.589 16.0349C142.569 16.5868 138.438 18.3345 137.365 18.7484L135.126 19.1777C135.061 19.1914 135.001 19.2269 134.958 19.2783C134.915 19.3298 134.891 19.3942 134.889 19.4613V21.7226L123.115 29.7405C120.915 29.4875 120.984 29.4645 120.884 29.5565C120.785 29.6485 120.808 29.5565 121.007 31.8561C120.486 32.1627 118.063 33.5655 116.27 34.6309C114.33 35.0142 114.775 34.9682 114.422 34.9299C114.438 31.6798 115.281 28.0311 117.366 25.5246ZM91.549 34.148C91.4669 33.2936 91.2736 32.4536 90.9742 31.6491C90.9561 31.6136 90.9301 31.5827 90.8982 31.5588C90.8663 31.5348 90.8294 31.5186 90.7902 31.5112C90.6139 31.5112 90.4759 31.6261 90.3303 31.7641C89.8397 32.2317 88.7972 33.4122 88.4753 33.7341L77.6672 34.1327C77.5982 33.7878 77.4066 32.8909 77.2916 32.5536C77.2783 32.5115 77.2556 32.473 77.2252 32.441C77.1948 32.4089 77.1575 32.3842 77.1161 32.3687C77.0748 32.3532 77.0304 32.3473 76.9865 32.3515C76.9425 32.3556 76.9 32.3697 76.8623 32.3927C76.6247 32.5153 75.1913 33.6575 74.9767 33.8261C72.9913 33.8874 63.3637 34.1404 61.4014 33.9027C63.1373 30.4636 65.7165 27.5205 68.8981 25.3483C75.7892 20.5421 92.9748 20.5421 100.732 23.6082C106.159 25.7545 111.303 27.4869 114.284 32.661C114.202 33.4067 114.161 34.1566 114.162 34.9069C113.433 34.8532 113.939 35.0219 112.713 34.194C105.814 29.5412 90.1463 24.666 82.2204 27.0116C82.1904 27.0206 82.165 27.0406 82.1493 27.0677C82.1336 27.0948 82.1289 27.1268 82.1361 27.1573C82.2587 27.5942 84.7499 25.7085 94.7991 27.8625C100.571 29.0889 108.313 31.7565 112.989 34.8532C109.425 34.7996 106.749 35.7807 102.051 37.2295C99.7126 36.7082 93.818 34.8686 91.549 34.148ZM85.0795 49.4173C90.2153 42.0663 95.2744 39.7054 103.913 37.0838C106.588 36.2637 109.532 35.1522 112.345 35.1369C113.242 35.0981 114.14 35.1443 115.028 35.2748C115.028 35.2748 115.166 35.2748 115.143 35.3208C115.261 36.5112 115.063 37.7117 114.568 38.8009C113.887 40.4761 112.963 42.0414 111.824 43.446C108.842 47.2787 107.585 48.7198 103.446 51.372C103.009 51.28 101.376 50.8201 100.962 50.6974C100.924 50.687 100.885 50.6852 100.847 50.6921C100.808 50.699 100.772 50.7144 100.74 50.7372C100.709 50.76 100.683 50.7897 100.664 50.8239C100.645 50.8581 100.634 50.8961 100.632 50.9351L100.41 54.2695C97.597 55.4116 92.1086 57.8568 89.855 59.8651C89.0885 58.0638 89.0042 57.0826 88.5443 57.0826C88.253 57.0826 88.253 57.1286 87.3561 60.7773C86.1987 61.3215 81.3542 63.5751 80.0818 63.7591C79.6908 62.594 81.4768 54.5301 85.0795 49.4173ZM114.008 47.7463C113.242 47.3784 112.069 47.9916 111.372 48.4132C111.678 47.8689 112.138 46.9644 111.54 46.6808C110.829 46.5011 110.075 46.6055 109.44 46.9721C110.245 46.0446 111.065 44.9944 112.084 43.6607C112.939 42.5585 113.679 41.3718 114.292 40.1193C114.438 41.8133 114.721 44.9408 115.097 48.9804C114.707 48.9914 114.324 49.091 113.978 49.2717C114.208 48.9037 114.79 48.1372 114.008 47.7463ZM56.0127 68.8335C55.4685 68.067 54.9395 67.0475 55.7751 66.6259C56.0328 66.5558 56.3078 66.5887 56.5416 66.7179C56.9774 66.9231 57.3867 67.1805 57.7604 67.4844C57.8036 67.5167 57.856 67.5343 57.9099 67.5346C57.9639 67.535 58.0165 67.5181 58.0602 67.4864C58.1038 67.4548 58.1362 67.41 58.1526 67.3586C58.169 67.3072 58.1685 67.2519 58.1513 67.2008C57.9483 66.6736 57.8595 66.1092 57.8907 65.5451C57.8907 65.4685 57.8907 65.4071 57.9903 65.3842C58.271 65.3273 58.5622 65.3567 58.8259 65.4685C59.2851 65.6312 59.7247 65.8446 60.1366 66.1047C60.1762 66.1276 60.2212 66.1396 60.2669 66.1396C60.3127 66.1396 60.3576 66.1276 60.3972 66.1047C60.7882 65.8517 59.968 64.9242 60.3972 63.6441C60.4735 63.3858 60.6057 63.1474 60.7846 62.9461C60.9635 62.7447 61.1845 62.5852 61.4321 62.479C62.2982 62.1341 63.4557 62.3257 63.4634 63.3298V63.5445C63.4624 63.5911 63.4757 63.6369 63.5013 63.6758C63.527 63.7147 63.5639 63.7449 63.6072 63.7624C63.6504 63.7798 63.6979 63.7838 63.7434 63.7736C63.7889 63.7634 63.8303 63.7397 63.862 63.7054C64.4369 63.1306 65.2417 61.3139 66.2689 61.8198C66.5831 61.9808 66.4912 62.249 66.4682 62.5863C66.4452 62.9236 66.5678 63.2915 66.8744 63.2532C67.365 63.1919 70.2855 60.3864 70.0095 62.1724C69.9473 62.5057 69.8443 62.83 69.7029 63.1382C69.6863 63.185 69.6859 63.2361 69.7017 63.2831C69.7175 63.3302 69.7486 63.3707 69.7901 63.398C69.8315 63.4254 69.8809 63.4381 69.9305 63.434C69.98 63.43 70.0267 63.4095 70.0632 63.3758C70.6994 62.663 72.6464 60.8233 73.275 61.4519C73.4666 61.6435 73.3209 62.456 73.229 62.732C73.1725 62.8284 73.1057 62.9183 73.0297 63.0002C72.8917 63.2072 72.9607 63.4372 73.2136 63.4372C74.0645 63.4372 74.9537 61.8275 75.9885 61.8275C76.8543 61.7655 77.7143 62.0096 78.4184 62.5173C78.495 62.594 78.817 63.3605 79.1236 63.0462C79.6985 62.479 78.817 61.3445 78.3571 60.463C78.1961 60.1411 77.9278 59.5202 78.2651 59.3746C78.5536 59.2947 78.8603 59.3108 79.1389 59.4205C79.2769 59.7042 79.5222 60.1871 79.7828 59.9571C80.0434 59.7272 79.9668 59.3899 79.4149 59.1293C79.3412 58.953 79.2822 58.771 79.2386 58.585C79.2386 58.4777 79.1772 58.2018 79.2386 58.1404C79.6259 57.9072 80.0751 57.7975 80.5263 57.8262C80.1814 58.9146 78.8553 63.4372 79.6525 64.242C79.7591 64.3318 79.8968 64.3759 80.0358 64.3647C81.1702 64.311 86.6663 61.7431 87.7011 61.2985C87.9157 61.1989 87.7931 61.2449 88.5749 58.2324C89.2878 60.1028 89.3874 60.6317 89.7477 60.6393C90.108 60.647 89.924 60.0491 94.0249 57.8568C97.1831 56.1705 100.74 54.7294 100.74 54.7294C100.788 54.7112 100.829 54.68 100.861 54.6394C100.892 54.5988 100.911 54.5503 100.916 54.4994L101.077 51.3413C103.377 51.9622 103.453 51.9852 103.584 51.9009C105.504 50.716 107.268 49.2944 108.834 47.6696C109.601 47.2404 110.789 46.7345 111.372 47.0257C111.762 47.225 110.965 48.5588 110.666 48.9267C110.648 48.9588 110.641 48.9961 110.646 49.0327C110.651 49.0693 110.668 49.1032 110.694 49.1294C110.72 49.1555 110.754 49.1723 110.79 49.1772C110.827 49.1822 110.864 49.175 110.896 49.1567C111.272 48.8808 113.043 47.7156 113.824 48.1066C114.606 48.4975 113.02 49.5246 113.502 49.8466C113.648 49.9386 113.832 49.8083 113.993 49.7009C114.327 49.501 114.708 49.3926 115.097 49.3867C115.541 54.0625 116.093 59.9111 116.684 66.143C115.391 66.4645 114.205 67.117 113.242 68.0363C112.013 67.925 110.775 68.1199 109.639 68.6036C109.241 68.7722 109.333 69.1478 109.731 69.1402C109.639 69.1402 109.961 69.1402 110.498 69.2781C110.697 69.2168 68.2925 68.8719 56.0127 68.8335ZM114.522 85.0073C114.522 85.0073 114.775 85.1376 115.105 85.3293C113.725 86.2491 110.689 87.8972 110.406 88.4567C110.371 88.5371 110.364 88.6269 110.386 88.7117C110.408 88.7965 110.458 88.8714 110.528 88.9243C110.72 89.1389 110.674 88.978 110.643 89.2769V90.603C110.567 91.29 110.423 91.9678 110.214 92.6266C109.864 92.7109 109.496 92.6813 109.164 92.5423C107.286 91.7221 106.213 90.3501 106.412 88.2958C107.363 88.4337 107.907 88.5947 108.091 88.61C108.275 88.6254 108.773 88.2881 108.19 88.0658C107.838 87.9355 107.853 83.7272 108.305 83.9265C108.333 83.9321 108.362 83.9278 108.387 83.9144C108.412 83.901 108.432 83.8793 108.443 83.8531C108.453 83.8269 108.455 83.7977 108.447 83.7706C108.438 83.7434 108.421 83.72 108.397 83.7042C109.164 82.5391 109.164 82.5621 109.164 82.4011C109.153 82.3621 109.134 82.3259 109.107 82.2954C109.081 82.2649 109.048 82.2408 109.011 82.2248C108.72 82.0681 108.475 81.8389 108.299 81.5596C108.123 81.2802 108.022 80.9602 108.006 80.6304C107.969 80.1336 108.027 79.6343 108.175 79.1587C108.468 79.2955 108.789 79.36 109.112 79.3466C109.435 79.3333 109.75 79.2426 110.03 79.0821C109.869 79.4117 109.693 79.8026 109.923 80.0785C110.101 80.2625 110.335 80.3826 110.589 80.42C110.843 80.4574 111.102 80.4101 111.326 80.2855C111.34 80.28 111.352 80.2717 111.363 80.2612C111.374 80.2507 111.383 80.2381 111.389 80.2243C111.395 80.2104 111.398 80.1955 111.399 80.1803C111.399 80.1652 111.396 80.1501 111.391 80.136C111.385 80.1219 111.377 80.1091 111.366 80.0982C111.356 80.0873 111.343 80.0786 111.329 80.0725C111.316 80.0665 111.301 80.0632 111.285 80.0629C111.27 80.0626 111.255 80.0653 111.241 80.0709C110.931 80.0828 110.628 79.9789 110.39 79.7796C110.604 79.2486 110.86 78.7358 111.157 78.2465C111.977 78.6528 111.923 78.2465 111.831 78.6605C111.609 80.5768 113.794 81.19 115.12 79.9176C115.34 79.6864 115.53 79.4289 115.687 79.151C115.907 79.1959 116.135 79.18 116.346 79.1051C116.768 79.3733 116.714 79.22 116.691 79.45C116.676 79.5587 116.689 79.6694 116.73 79.7715C116.77 79.8736 116.836 79.9635 116.921 80.0326C116.937 80.1213 116.937 80.2121 116.921 80.3008C115.787 80.9371 115.856 80.5615 115.664 81.1364C115.258 81.351 115.273 81.7879 115.174 82.1788C115.128 82.3551 114.637 84.0952 114.445 84.7237C114.43 84.7722 114.429 84.8241 114.442 84.8732C114.456 84.9222 114.484 84.9662 114.522 84.9997V85.0073ZM110.973 89.3459C111.396 89.6563 111.695 90.1074 111.816 90.6183C111.923 91.1549 111.816 91.2852 111.923 91.4692C111.961 91.5266 112.014 91.5719 112.077 91.5995C111.647 91.9686 111.163 92.2709 110.643 92.4963C110.803 91.8897 110.918 91.2723 110.988 90.649C111.019 90.373 110.95 89.7982 110.973 89.3382V89.3459ZM110.973 88.5794C111.831 87.8128 115.319 85.6589 115.748 85.0763C116.293 85.4059 117.113 85.9118 117.626 86.2798C116.093 87.5062 114.108 89.0853 112.391 90.6873C112.284 89.6295 111.716 89.2846 111.004 88.6024L110.973 88.5794ZM94.7148 103.711C97.0002 103.607 99.2778 103.374 101.537 103.013C102.541 104.784 103.787 106.407 105.239 107.835C106.754 109.231 108.476 110.384 110.344 111.253C109.218 113.246 107.363 115.922 105.469 117.217L100.303 114.327C99.7739 112.541 99.5823 110.962 99.0074 109.237C98.6711 108.055 98.0066 106.992 97.0911 106.171C96.4242 105.466 94.7915 103.872 94.6842 103.726C94.5768 103.58 94.6765 103.749 94.7148 103.711ZM101.361 102.461C99.7203 102.707 95.305 103.228 93.7873 103.097C94.0904 100.172 94.2057 97.2302 94.1323 94.29C95.2821 95.2788 96.8381 96.5896 98.3328 97.908C97.6918 98.1062 97.1357 98.5138 96.7538 99.0655C96.7058 99.1623 96.6807 99.2687 96.6804 99.3767C96.6801 99.4847 96.7046 99.5913 96.752 99.6883C96.7994 99.7853 96.8684 99.8702 96.9538 99.9363C97.0392 100.002 97.1386 100.048 97.2444 100.07C97.3537 100.085 97.4647 100.085 97.574 100.07C97.5411 100.179 97.533 100.294 97.5502 100.407C97.5674 100.519 97.6096 100.627 97.6736 100.721C97.7863 100.898 97.9491 101.037 98.1412 101.12C98.2248 101.135 98.3106 101.135 98.3942 101.12C98.3753 101.195 98.3753 101.274 98.3942 101.35C98.5475 102.607 99.7816 101.94 100.962 101.518C101.545 101.319 101.537 101.35 101.897 101.641L101.361 102.461ZM107.554 87.8972C106.7 87.6794 105.822 87.5712 104.94 87.5752C104.588 87.5752 104.626 87.6595 104.641 87.5752C104.772 86.5634 105.285 83.7426 105.975 82.976L108.045 83.7426C107.539 84.3634 107.317 86.847 107.539 87.9278L107.554 87.8972ZM107.554 83.298C107.309 83.1753 106.22 82.6464 106.021 82.5314C105.822 82.4165 105.738 82.5314 105.577 82.7384L105.324 82.6924L107.439 80.3468C107.425 80.7376 107.498 81.1267 107.655 81.4851C107.811 81.8434 108.047 82.1618 108.344 82.4165L107.554 83.298ZM105.324 83.0374C104.843 83.8992 104.506 84.8339 104.327 85.8045C104.15 86.5614 104.027 87.3298 103.959 88.1041C103.957 88.1436 103.963 88.1832 103.977 88.2203C103.99 88.2574 104.012 88.2914 104.039 88.3201C104.066 88.3488 104.099 88.3716 104.135 88.3872C104.172 88.4028 104.211 88.4108 104.25 88.4107C104.722 88.1636 105.266 88.0955 105.784 88.2191C105.692 89.0005 105.803 89.7923 106.105 90.5187C103.703 92.9681 101.172 95.2889 98.5245 97.4711L94.0863 93.8761C94.0863 92.9716 94.0863 92.1437 94.0249 91.4769C93.956 89.7445 93.91 89.7292 93.6953 89.4839C93.1025 88.8863 92.4643 88.3353 91.7867 87.8358C95.5963 85.5592 100.832 82.4241 105.362 83.0527L105.324 83.0374ZM101.453 101.028C100.939 101.028 99.7126 101.618 99.0611 101.603C98.9231 101.603 98.8847 101.434 98.8771 101.296C99.36 100.714 100.663 100.53 100.663 100.062C100.663 100.062 100.533 99.6864 100.242 99.8167C99.6205 100.126 98.9743 100.383 98.3098 100.583C98.2519 100.536 98.2026 100.479 98.1642 100.415C98.1029 100.3 98.1642 100.277 98.1642 100.246C98.7379 99.8557 99.3654 99.551 100.027 99.3415C100.09 99.3063 100.138 99.2495 100.162 99.1816C100.187 99.1138 100.186 99.0393 100.16 98.9721C100.134 98.9049 100.084 98.8494 100.02 98.8158C99.9563 98.7823 99.8824 98.7729 99.8122 98.7896C98.9691 99.0732 98.9384 99.1805 98.2792 99.3721C98.0722 99.4258 97.344 99.6404 97.252 99.4488C97.1601 99.2571 97.666 98.8739 97.8806 98.7512C98.7335 98.2671 99.6846 97.9815 100.663 97.9157C101.522 97.9157 101.606 97.9694 103.4 99.2418L102.043 101.388C101.886 101.212 101.681 101.086 101.453 101.028ZM101.767 97.6321C100.956 97.3763 100.086 97.3763 99.2757 97.6321C101.761 95.5456 104.119 93.3109 106.335 90.9403C106.936 91.9215 107.844 92.6762 108.919 93.0866C109.247 93.2283 109.604 93.2888 109.961 93.2629C108.819 95.7618 105.485 97.1568 104.71 98.391L104.396 98.1993C104.335 98.1617 104.261 98.1494 104.191 98.1652C104.121 98.1809 104.06 98.2234 104.02 98.2836L103.576 98.9888C102.894 98.4369 102.051 97.7931 101.767 97.6398V97.6321ZM115.564 75.9853C115.564 76.2459 115.357 76.4145 115.365 76.7518C115.364 76.8788 115.388 77.0048 115.437 77.1221C115.485 77.2394 115.558 77.3455 115.649 77.434C115.761 77.5221 115.882 77.5991 116.009 77.664C116.067 77.6843 116.12 77.7185 116.162 77.7636C116.058 78.0087 115.986 78.2664 115.948 78.5302H115.886C116.017 78.1239 115.94 77.7636 115.679 77.641C114.67 77.179 113.557 76.9938 112.452 77.1044C112.253 77.1044 112.008 77.7406 111.939 77.9553C111.7 77.8092 111.442 77.6982 111.172 77.6256C111.31 77.2577 111.257 76.9511 111.027 76.7978C110.46 76.4636 109.827 76.2569 109.172 76.1922L109.333 75.7783C109.525 75.6954 109.688 75.5565 109.8 75.3797C109.976 75.1421 110.283 74.5442 110.383 74.6132C110.613 74.6822 110.873 75.1191 111.464 74.6592C111.666 74.4674 111.853 74.2598 112.023 74.0383C112.255 74.188 112.496 74.3237 112.744 74.4445C113.227 74.5519 113.571 74.0996 113.771 74.0306C113.87 74.1533 114.039 74.3832 114.085 74.4292C114.211 74.5221 114.357 74.5848 114.511 74.6127C114.665 74.6406 114.824 74.6329 114.974 74.5902C114.821 75.3414 115.204 75.464 115.557 75.9929L115.564 75.9853ZM116.845 70.7115C115.355 70.0779 113.817 69.5653 112.245 69.1785C111.931 69.1095 109.762 68.8642 109.685 68.8489L109.777 68.7952C111.054 68.2968 112.451 68.1953 113.786 68.5039C116.584 69.2705 121.221 71.4321 122.831 73.8696C123.4 74.6394 123.857 75.4859 124.188 76.3839C123.443 75.7596 122.746 75.0806 122.103 74.3526C120.635 72.7705 118.837 71.5302 116.837 70.7192L116.845 70.7115ZM122.793 71.662C122.793 72.007 122.709 72.3442 122.67 72.6815C120.731 70.5429 116.101 68.4886 113.625 68.021C116.331 65.8747 119.351 66.0357 121.129 67.4768C121.716 67.996 122.172 68.6463 122.46 69.3749C122.747 70.1036 122.859 70.8898 122.785 71.6697L122.793 71.662ZM99.9656 69.6767C111.395 69.6767 110.367 69.6767 110.283 69.7534H109.915C109.48 69.8477 109.088 70.0852 108.804 70.4279C108.397 71.0565 108.512 71.0335 108.551 71.5547C108.405 71.6891 108.276 71.841 108.167 72.007C108.036 72.2056 107.962 72.4368 107.953 72.675C107.945 72.9132 108.004 73.149 108.121 73.3561C108.052 73.5247 107.907 73.6933 107.845 73.8773C107.809 73.9682 107.8 74.0675 107.817 74.1637C107.835 74.26 107.879 74.3493 107.945 74.4215C107.998 74.4642 108.055 74.5027 108.114 74.5365C108.141 74.548 108.165 74.5665 108.183 74.5902C108.144 74.7435 108.045 74.8585 108.014 75.0118C108.003 75.1213 108.02 75.2318 108.065 75.3326C108.109 75.4334 108.179 75.5209 108.267 75.5867C108.435 75.7114 108.615 75.8193 108.804 75.9086L108.712 76.1539H108.152C107.999 76.1539 107.776 76.5372 107.708 76.6752C107.495 76.9928 107.382 77.3663 107.382 77.7483C107.382 78.1303 107.495 78.5038 107.708 78.8214C107.588 79.162 107.503 79.5138 107.455 79.8716L104.871 82.6924C102.677 82.6052 100.49 82.9867 98.4555 83.8115C95.9705 84.8179 93.5841 86.0522 91.3268 87.4986C90.3993 86.7933 89.3261 86.0115 88.3909 85.3599C95.1671 83.5203 104.848 74.0383 99.9656 69.6767ZM81.0936 80.9371C83.6078 82.2785 91.9553 88.3111 93.2814 89.8058C93.4271 89.9821 93.4424 89.8058 93.5037 91.5075C93.5957 94.1597 93.6187 100.284 93.2201 102.883C92.9978 102.707 81.2852 93.5005 80.6107 93.0099C80.5647 91.8295 80.8636 82.1942 81.0936 80.9371ZM54.5716 109.299C54.518 109.299 54.4796 109.299 54.4566 109.253C54.4336 109.207 54.4566 108.946 54.5639 108.785C54.9932 108.019 55.9744 107.505 57.3388 106.141C57.6596 105.852 57.9202 105.503 58.1053 105.113C58.205 104.73 58.3736 103.105 58.4196 102.645H62.8731C62.6206 103.987 62.3008 105.314 61.915 106.623C60.8265 107.16 55.7827 109.567 54.5716 109.299ZM60.7039 110.28C60.0446 110.28 55.959 110.372 55.3381 110.28C55.311 110.13 55.311 109.977 55.3381 109.828C56.8634 109.477 58.3463 108.963 59.761 108.295H62.0606C61.6007 108.908 61.1638 109.582 60.7269 110.28H60.7039ZM66.4068 102.27C64.8754 104.05 63.4765 105.941 62.2216 107.927L60.3436 107.965C61.3631 107.49 62.1219 107.091 62.2216 107.045C62.3045 106.992 62.3688 106.914 62.4056 106.823C62.7646 105.436 63.036 104.028 63.2181 102.607C64.1839 102.607 64.5288 102.607 64.6208 102.362C64.8661 101.825 69.3427 93.4392 70.0632 92.1131C70.3085 92.1131 69.8256 91.6991 73.4896 96.467C77.1383 95.5011 80.442 95.4475 85.4398 97.4405L87.1415 98.7896C83.9221 97.3408 80.4344 96.1757 76.87 96.375C75.3664 96.454 73.8757 96.6956 72.4241 97.0955C70.1092 98.3373 68.2389 100.323 66.4298 102.27H66.4068ZM68.8674 118.19C71.6116 115.186 73.9802 112.357 75.9348 110.379H80.0128C77.1153 113.637 74.2178 116.91 71.6882 119.769C70.7279 119.294 69.7939 118.767 68.8904 118.19H68.8674ZM64.9581 131.689C64.1855 131.713 63.4332 131.439 62.8578 130.923C63.701 129.566 72.769 119.363 80.7563 110.334H83.8224C67.4953 128.899 65.1651 131.559 64.9581 131.689ZM75.0456 121.088C77.8128 117.907 81.0322 114.227 84.4203 110.356C85.5088 110.356 86.2677 110.402 86.5666 110.448C88.9735 114.894 94.1782 116.581 99.176 117.24L103.277 119.54C100.988 120.809 98.5079 121.697 95.9336 122.169C89.3108 123.464 80.2887 122.836 75.0456 121.088ZM103.407 119.754L98.2792 126.093L92.7832 123.027C96.512 122.679 100.129 121.564 103.407 119.754ZM88.3756 123.319C89.7017 123.319 90.9358 123.227 92.0933 123.112L97.9572 126.454L96.8841 127.78L88.3756 123.319ZM109.072 132.778C108.925 133.148 108.732 133.498 108.497 133.82C107.838 133.49 103.975 131.474 99.6743 129.221L100.686 127.994L109.072 132.778ZM89.9087 139.968C89.3765 139.829 88.8934 139.545 88.5136 139.147C88.5596 139.078 95.4124 130.578 104.028 119.923L105.807 120.912C94.7072 134.334 90.4299 139.531 89.9087 139.968ZM133.003 133.352C132.761 133.886 132.477 134.398 132.152 134.885C129.853 133.766 88.4599 110.357 86.7736 109.966C85.9304 109.751 76.9696 109.966 75.9885 109.966L77.7668 108.141C78.6943 108.141 87.3715 108.141 88.0767 108.325C90.3763 109 132.719 133.352 132.995 133.352H133.003ZM107.792 118.512L106.006 117.531C107.907 116.128 109.708 113.522 110.858 111.476C111.567 111.75 112.305 111.94 113.058 112.043C113.165 112.051 113.388 111.759 107.784 118.512H107.792ZM122.103 106.317C121.354 107.937 120.143 109.299 118.623 110.234C114.024 113.039 109.677 111 105.592 107.398C104.15 105.974 102.915 104.357 101.92 102.592L104.304 98.7972C111.441 103.021 110.705 102.461 112.521 103.511C112.667 103.588 112.828 103.672 113.211 103.895L114.016 104.378C114.568 104.7 114.422 104.776 114.591 104.784C114.89 104.784 114.591 104.201 114.123 103.803C113.527 103.372 112.871 103.032 112.176 102.791C113.591 100.377 115.142 98.0452 116.822 95.8078C116.841 95.7834 116.85 95.7523 116.846 95.7214C116.843 95.6905 116.827 95.6623 116.802 95.6429C116.778 95.6236 116.747 95.6148 116.716 95.6184C116.685 95.622 116.657 95.6377 116.638 95.6621C114.89 97.8788 113.272 100.195 111.793 102.599C110.85 102.132 105.983 99.1728 105.078 98.6209C105.791 97.4635 109.287 95.9611 110.375 93.1786C112.13 92.7493 113.932 90.6337 114.974 89.1696L117.887 86.6094C119.328 87.6117 120.482 88.9723 121.237 90.557C122.552 93.4489 123.261 96.5792 123.322 99.7554C123.451 102.009 123.033 104.26 122.103 106.317ZM137.97 77.8863C138.568 77.8863 139.879 78.2925 140.093 78.7065C140.147 78.7908 138.875 80.6304 123.82 99.0272C123.765 97.9737 123.632 96.9258 123.421 95.8921C131.455 85.9578 137.748 78.1622 137.978 77.8863H137.97ZM135.671 80.3085C133.133 83.3746 128.603 88.8783 123.306 95.3248C122.907 93.6356 122.342 91.9899 121.62 90.4114C120.831 88.8049 119.64 87.4293 118.163 86.4178C118.194 86.3713 118.207 86.3147 118.199 86.2593C118.19 86.2038 118.161 86.1536 118.117 86.1188C117.504 85.7125 116.415 85.1606 115.817 84.831C115.801 84.8222 115.783 84.8174 115.764 84.8171C115.746 84.8168 115.728 84.821 115.711 84.8292C115.695 84.8375 115.68 84.8497 115.669 84.8647C115.659 84.8796 115.651 84.897 115.649 84.9154L115.036 84.5781L115.534 83.045C115.715 83.1716 115.926 83.25 116.145 83.2728C116.365 83.2956 116.588 83.262 116.791 83.1753C116.884 83.1083 116.966 83.0283 117.036 82.9377C117.252 83.0703 117.497 83.1474 117.75 83.1621C118.003 83.1769 118.255 83.1287 118.485 83.022C118.808 82.8171 119.072 82.5319 119.251 82.1942C119.42 81.9489 119.451 81.9029 119.895 81.9105C120.325 81.9779 120.765 81.8762 121.122 81.6269C121.519 81.2158 121.739 80.6654 121.735 80.0939C122.128 79.9328 122.461 79.6539 122.689 79.2957C122.917 78.9374 123.028 78.5173 123.007 78.0932C125.859 78.5148 132.834 79.565 135.671 80.3315V80.3085ZM124.173 49.5553C124.334 49.1797 124.694 49.287 125.062 49.471C125.43 49.6549 125.437 49.9922 125.499 50.3755C125.836 52.3455 128.074 49.5016 128.718 50.4751C129.014 50.9673 129.115 51.5525 129.002 52.1155C128.852 52.3816 128.686 52.6376 128.503 52.882C128.47 52.9219 128.452 52.9721 128.452 53.0238C128.452 53.0756 128.47 53.1258 128.503 53.1657C129.101 53.7635 130.757 52.7517 131.386 53.3879C131.638 53.6909 131.798 54.0605 131.846 54.4521C131.893 54.8438 131.827 55.2409 131.654 55.5956C131.432 56.1551 130.933 56.6457 131.056 56.9063C131.179 57.1669 131.324 57.098 131.501 56.9063C131.677 56.7147 133.463 56.1934 133.8 56.4004C133.895 56.4776 133.973 56.5744 134.027 56.6842C134.081 56.794 134.111 56.9142 134.114 57.0366C134.183 57.7112 133.823 57.8645 133.616 58.1634C133.409 58.4624 133.532 58.6923 133.823 58.6923C134.789 58.6923 135.962 57.3356 136.889 57.8108C137.127 57.9335 136.889 58.6617 136.69 58.953C136.491 59.2442 136.322 59.3516 136.399 59.5738C136.552 60.0184 137.411 59.5738 137.824 59.3516C138.675 58.8993 139.465 58.4241 140.001 59.2289C140.292 59.7148 140.393 60.2906 140.285 60.8463C140.247 60.9996 139.879 61.4289 139.848 61.6128C139.787 61.9424 140.178 61.9884 140.5 61.9271C141.167 61.8045 142.431 61.1606 142.454 61.5592C142.454 62.1187 141.55 63.3912 141.55 63.7054C141.557 63.7773 141.591 63.8437 141.645 63.8919C141.699 63.94 141.769 63.9665 141.841 63.9661C141.918 63.9661 143.673 63.8204 143.78 63.8511C144.984 64.15 143.734 65.6754 144.302 66.2427C144.67 66.6183 145.329 66.2427 145.888 66.0664C145.95 66.0664 146.141 66.005 146.172 66.0664C146.379 66.488 145.321 66.8329 144.892 67.0705C144.463 67.3081 144.478 67.7527 144.754 67.837C144.886 67.856 145.02 67.856 145.153 67.837C145.919 68.09 146.026 68.9639 146.003 69.7687C144.923 69.7151 130.205 69.2168 130.152 69.2168C128.536 63.0934 126.51 57.0856 124.088 51.234C124.021 50.6737 124.05 50.1061 124.173 49.5553ZM131.018 74.8508C129.432 75.0298 127.858 75.3011 126.304 75.6633C125.859 75.7783 125.468 75.9086 125.146 76.0083C125.116 76.0144 125.089 76.0323 125.072 76.0582C125.054 76.0841 125.048 76.1157 125.054 76.1462C125.06 76.1767 125.078 76.2036 125.104 76.2208C125.13 76.2381 125.162 76.2443 125.192 76.2382L125.913 76.1846C127.192 76.0656 128.46 75.8504 129.707 75.5407C130.169 75.4104 130.625 75.2569 131.071 75.0808C131.388 76.3839 131.69 77.7202 131.976 79.0897C130.711 78.8751 124.51 77.9476 122.892 77.7253C122.883 77.587 122.829 77.4554 122.739 77.3497C122.92 76.9964 123.059 76.6235 123.153 76.2382C123.432 76.5258 123.74 76.7827 124.073 77.0048C124.418 77.1504 124.931 76.8744 124.709 76.0773C124.317 75.1083 123.801 74.1938 123.176 73.3561C123.214 72.8272 123.306 72.3059 123.368 71.754C123.479 70.6517 123.243 69.5422 122.694 68.5803C122.144 67.6183 121.308 66.852 120.302 66.3883C119.378 66.0414 118.386 65.9128 117.404 66.0127C117.22 64.1654 117.036 62.2644 116.845 60.4094C117.157 60.413 117.469 60.3976 117.78 60.3634C119.328 60.1715 120.854 59.8248 122.333 59.3286C122.363 59.3225 122.39 59.3045 122.407 59.2786C122.425 59.2527 122.431 59.2211 122.425 59.1906C122.419 59.1601 122.401 59.1333 122.375 59.116C122.349 59.0988 122.317 59.0925 122.287 59.0986C120.435 59.2496 118.603 59.5912 116.822 60.1181C115.549 47.455 115.051 43.8523 114.798 38.9925C115.092 38.2284 115.288 37.4299 115.38 36.6163C116.555 38.3404 117.58 40.161 118.447 42.0586C118.5 42.1659 118.554 42.1506 119.129 42.3116C124.479 51.9699 128.396 63.8434 131.018 74.8661V74.8508ZM118.753 41.775C117.825 39.7999 116.706 37.9205 115.411 36.164C115.431 35.8617 115.415 35.5582 115.365 35.2595C115.353 35.2224 115.333 35.1889 115.304 35.1621C115.276 35.1353 115.242 35.1161 115.204 35.1062C117.45 34.6769 123.299 33.6345 125.598 33.8261C135.732 34.6539 142.669 37.3445 148.035 45.8759C149.744 48.5818 149.138 53.342 147.858 55.7489C147.737 55.987 147.582 56.2064 147.398 56.4004C146.555 55.6339 142.27 51.0347 141.473 50.2222L141.144 47.4397C141.137 47.3966 141.121 47.3555 141.097 47.3193C141.073 47.283 141.041 47.2525 141.003 47.2299C140.966 47.2072 140.924 47.193 140.881 47.1882C140.838 47.1834 140.794 47.1881 140.753 47.202L138.453 48.0912L130.129 44.6802C129.063 41.8133 129.14 41.8823 128.948 41.844C128.756 41.8057 128.848 41.7827 126.771 43.8983L118.753 41.775Z" fill="white"/>
</svg>
